<svg width="61" height="62" viewBox="0 0 61 62" fill="none" xmlns="http://www.w3.org/2000/svg">
<path d="M51.8332 22.1732V9.66651H39.3265L30.4998 0.839844L21.6732 9.66651H9.16651V22.1732L0.339844 30.9998L9.16651 39.8265V52.3332H21.6732L30.4998 61.1598L39.3265 52.3332H51.8332V39.8265L60.6598 30.9998L51.8332 22.1732ZM30.4998 46.9998C21.6732 46.9998 14.4998 39.8265 14.4998 30.9998C14.4998 22.1732 21.6732 14.9998 30.4998 14.9998C39.3265 14.9998 46.4998 22.1732 46.4998 30.9998C46.4998 39.8265 39.3265 46.9998 30.4998 46.9998ZM30.4998 20.3332C24.6065 20.3332 19.8332 25.1065 19.8332 30.9998C19.8332 36.8932 24.6065 41.6665 30.4998 41.6665C36.3932 41.6665 41.1665 36.8932 41.1665 30.9998C41.1665 25.1065 36.3932 20.3332 30.4998 20.3332Z" fill="#141927"/>
</svg>
